<?xml version="1.0" encoding="UTF-8" standalone="no"?>
<!DOCTYPE svg PUBLIC "-//W3C//DTD SVG 1.1//EN"
 "http://www.w3.org/Graphics/SVG/1.1/DTD/svg11.dtd">
<!-- Generated by graphviz version 8.0.5 (20230430.1635)
 -->
<!-- Pages: 1 -->
<svg width="364pt" height="946pt"
 viewBox="0.00 0.00 364.00 946.00" xmlns="http://www.w3.org/2000/svg" xmlns:xlink="http://www.w3.org/1999/xlink">
<g id="graph0" class="graph" transform="scale(1 1) rotate(0) translate(4 942)">
<polygon fill="white" stroke="none" points="-4,4 -4,-942 360,-942 360,4 -4,4"/>
<!-- sch0 -->
<g id="node1" class="node">
<title>sch0</title>
<polygon fill="lightgrey" stroke="black" points="0,-901.5 0,-937.5 356,-937.5 356,-901.5 0,-901.5"/>
<text text-anchor="middle" x="15.12" y="-917.15" font-family="Times New Roman,serif" font-size="8.00">date</text>
<polyline fill="none" stroke="black" points="30.25,-901.5 30.25,-937.5"/>
<text text-anchor="middle" x="62.62" y="-917.15" font-family="Times New Roman,serif" font-size="8.00">block_number</text>
<polyline fill="none" stroke="black" points="95,-901.5 95,-937.5"/>
<text text-anchor="middle" x="132.62" y="-917.15" font-family="Times New Roman,serif" font-size="8.00">transaction_hash</text>
<polyline fill="none" stroke="black" points="170.25,-901.5 170.25,-937.5"/>
<text text-anchor="middle" x="207.12" y="-917.15" font-family="Times New Roman,serif" font-size="8.00">receipt_gas_used</text>
<polyline fill="none" stroke="black" points="244,-901.5 244,-937.5"/>
<text text-anchor="middle" x="300" y="-917.15" font-family="Times New Roman,serif" font-size="8.00">receipt_effective_gas_price</text>
</g>
<!-- node1 -->
<g id="node2" class="node">
<title>node1</title>
<path fill="cyan" stroke="cyan" d="M308.62,-864C308.62,-864 221.38,-864 221.38,-864 215.38,-864 209.38,-858 209.38,-852 209.38,-852 209.38,-840 209.38,-840 209.38,-834 215.38,-828 221.38,-828 221.38,-828 308.62,-828 308.62,-828 314.62,-828 320.62,-834 320.62,-840 320.62,-840 320.62,-852 320.62,-852 320.62,-858 314.62,-864 308.62,-864"/>
<text text-anchor="middle" x="265" y="-841.73" font-family="Times New Roman,serif" font-size="12.00">Gas Price Assembler</text>
</g>
<!-- sch0&#45;&gt;node1 -->
<g id="edge1" class="edge">
<title>sch0:f3&#45;&gt;node1</title>
<path fill="none" stroke="black" d="M207,-901C207,-889.2 213.51,-879.25 222.16,-871.23"/>
<polygon fill="black" stroke="black" points="224.02,-873.42 229.59,-864.41 219.62,-867.98 224.02,-873.42"/>
</g>
<!-- sch0&#45;&gt;node1 -->
<g id="edge2" class="edge">
<title>sch0:f4&#45;&gt;node1</title>
<path fill="none" stroke="black" d="M300,-901C300,-890.83 295.57,-881.06 289.86,-872.69"/>
<polygon fill="black" stroke="black" points="292.2,-870.99 283.32,-865.22 286.66,-875.27 292.2,-870.99"/>
</g>
<!-- sch1 -->
<g id="node3" class="node">
<title>sch1</title>
<polygon fill="lightgrey" stroke="black" points="232.62,-754.5 232.62,-790.5 297.38,-790.5 297.38,-754.5 232.62,-754.5"/>
<text text-anchor="middle" x="265" y="-770.15" font-family="Times New Roman,serif" font-size="8.00">gas_and_price</text>
</g>
<!-- node1&#45;&gt;sch1 -->
<g id="edge3" class="edge">
<title>node1&#45;&gt;sch1:f0</title>
<path fill="none" stroke="black" d="M265,-827.82C265,-819.87 265,-810.21 265,-801.2"/>
<polygon fill="black" stroke="black" points="268.5,-801.32 265,-791.32 261.5,-801.32 268.5,-801.32"/>
</g>
<!-- node2 -->
<g id="node4" class="node">
<title>node2</title>
<path fill="cyan" stroke="cyan" d="M294.38,-717C294.38,-717 235.62,-717 235.62,-717 229.62,-717 223.62,-711 223.62,-705 223.62,-705 223.62,-693 223.62,-693 223.62,-687 229.62,-681 235.62,-681 235.62,-681 294.38,-681 294.38,-681 300.38,-681 306.38,-687 306.38,-693 306.38,-693 306.38,-705 306.38,-705 306.38,-711 300.38,-717 294.38,-717"/>
<text text-anchor="middle" x="265" y="-694.73" font-family="Times New Roman,serif" font-size="12.00">Fee Calculator</text>
</g>
<!-- sch1&#45;&gt;node2 -->
<g id="edge4" class="edge">
<title>sch1:f0&#45;&gt;node2</title>
<path fill="none" stroke="black" d="M265,-754.58C265,-746.62 265,-737.06 265,-728.18"/>
<polygon fill="black" stroke="black" points="268.5,-728.46 265,-718.47 261.5,-728.47 268.5,-728.46"/>
</g>
<!-- sch2 -->
<g id="node5" class="node">
<title>sch2</title>
<polygon fill="lightgrey" stroke="black" points="238,-607.5 238,-643.5 292,-643.5 292,-607.5 238,-607.5"/>
<text text-anchor="middle" x="265" y="-623.15" font-family="Times New Roman,serif" font-size="8.00">txn_fee</text>
</g>
<!-- node2&#45;&gt;sch2 -->
<g id="edge5" class="edge">
<title>node2&#45;&gt;sch2:f0</title>
<path fill="none" stroke="black" d="M265,-680.82C265,-672.87 265,-663.21 265,-654.2"/>
<polygon fill="black" stroke="black" points="268.5,-654.32 265,-644.32 261.5,-654.32 268.5,-654.32"/>
</g>
<!-- node3 -->
<g id="node6" class="node">
<title>node3</title>
<path fill="cyan" stroke="cyan" d="M296.62,-570C296.62,-570 233.38,-570 233.38,-570 227.38,-570 221.38,-564 221.38,-558 221.38,-558 221.38,-546 221.38,-546 221.38,-540 227.38,-534 233.38,-534 233.38,-534 296.62,-534 296.62,-534 302.62,-534 308.62,-540 308.62,-546 308.62,-546 308.62,-558 308.62,-558 308.62,-564 302.62,-570 296.62,-570"/>
<text text-anchor="middle" x="265" y="-547.73" font-family="Times New Roman,serif" font-size="12.00">Fee Aggregator</text>
</g>
<!-- sch2&#45;&gt;node3 -->
<g id="edge6" class="edge">
<title>sch2:f0&#45;&gt;node3</title>
<path fill="none" stroke="black" d="M265,-607.58C265,-599.62 265,-590.06 265,-581.18"/>
<polygon fill="black" stroke="black" points="268.5,-581.46 265,-571.47 261.5,-581.47 268.5,-581.46"/>
</g>
<!-- sch2a -->
<g id="node7" class="node">
<title>sch2a</title>
<polygon fill="lightgrey" stroke="black" points="236.75,-460.5 236.75,-496.5 293.25,-496.5 293.25,-460.5 236.75,-460.5"/>
<text text-anchor="middle" x="265" y="-481.4" font-family="Times New Roman,serif" font-size="8.00">txn_fee </text>
<text text-anchor="middle" x="265" y="-470.9" font-family="Times New Roman,serif" font-size="8.00"> (aggregate)</text>
</g>
<!-- node3&#45;&gt;sch2a -->
<g id="edge7" class="edge">
<title>node3&#45;&gt;sch2a:f0</title>
<path fill="none" stroke="black" d="M265,-533.82C265,-525.87 265,-516.21 265,-507.2"/>
<polygon fill="black" stroke="black" points="268.5,-507.32 265,-497.32 261.5,-507.32 268.5,-507.32"/>
</g>
<!-- node4 -->
<g id="node8" class="node">
<title>node4</title>
<path fill="cyan" stroke="cyan" d="M234.75,-423C234.75,-423 193.25,-423 193.25,-423 187.25,-423 181.25,-417 181.25,-411 181.25,-411 181.25,-399 181.25,-399 181.25,-393 187.25,-387 193.25,-387 193.25,-387 234.75,-387 234.75,-387 240.75,-387 246.75,-393 246.75,-399 246.75,-399 246.75,-411 246.75,-411 246.75,-417 240.75,-423 234.75,-423"/>
<text text-anchor="middle" x="214" y="-400.73" font-family="Times New Roman,serif" font-size="12.00">Lag Shifter</text>
</g>
<!-- sch2a&#45;&gt;node4 -->
<g id="edge8" class="edge">
<title>sch2a:f0&#45;&gt;node4</title>
<path fill="none" stroke="black" d="M252.39,-460.58C246.42,-452.09 239.17,-441.78 232.58,-432.41"/>
<polygon fill="black" stroke="black" points="234.9,-430.63 226.29,-424.47 229.18,-434.66 234.9,-430.63"/>
</g>
<!-- node6 -->
<g id="node12" class="node">
<title>node6</title>
<path fill="yellow" stroke="yellow" d="M323.62,-110C323.62,-110 254.38,-110 254.38,-110 248.38,-110 242.38,-104 242.38,-98 242.38,-98 242.38,-86 242.38,-86 242.38,-80 248.38,-74 254.38,-74 254.38,-74 323.62,-74 323.62,-74 329.62,-74 335.62,-80 335.62,-86 335.62,-86 335.62,-98 335.62,-98 335.62,-104 329.62,-110 323.62,-110"/>
<text text-anchor="middle" x="289" y="-87.72" font-family="Times New Roman,serif" font-size="12.00">Linear Regressor</text>
</g>
<!-- sch2a&#45;&gt;node6 -->
<g id="edge19" class="edge">
<title>sch2a:f0&#45;&gt;node6</title>
<path fill="none" stroke="black" d="M287.35,-460.69C301.45,-447.34 317,-427.69 317,-406 317,-406 317,-406 317,-174 317,-155.38 310.31,-135.61 303.47,-120.27"/>
<polygon fill="black" stroke="black" points="306.25,-118.95 298.79,-111.42 299.92,-121.95 306.25,-118.95"/>
<text text-anchor="middle" x="327.5" y="-287.4" font-family="Times New Roman,serif" font-size="8.00"> Label</text>
</g>
<!-- sch3 -->
<g id="node9" class="node">
<title>sch3</title>
<polygon fill="lightgrey" stroke="black" points="79.25,-313.5 79.25,-349.5 288.75,-349.5 288.75,-313.5 79.25,-313.5"/>
<text text-anchor="middle" x="110.12" y="-329.15" font-family="Times New Roman,serif" font-size="8.00">txn_fee_lag1</text>
<polyline fill="none" stroke="black" points="141,-313.5 141,-349.5"/>
<text text-anchor="middle" x="171.88" y="-329.15" font-family="Times New Roman,serif" font-size="8.00">txn_fee_lag2</text>
<polyline fill="none" stroke="black" points="202.75,-313.5 202.75,-349.5"/>
<text text-anchor="middle" x="214.12" y="-329.15" font-family="Times New Roman,serif" font-size="8.00">...</text>
<polyline fill="none" stroke="black" points="225.5,-313.5 225.5,-349.5"/>
<text text-anchor="middle" x="257.12" y="-329.15" font-family="Times New Roman,serif" font-size="8.00">txn_fee_lagN</text>
</g>
<!-- node4&#45;&gt;sch3 -->
<g id="edge9" class="edge">
<title>node4&#45;&gt;sch3:f0</title>
<path fill="none" stroke="black" d="M180.81,-400.6C153.94,-396.03 119.33,-385.38 111.58,-360.62"/>
<polygon fill="black" stroke="black" points="114.93,-360.38 110,-351 108.01,-361.41 114.93,-360.38"/>
</g>
<!-- node4&#45;&gt;sch3 -->
<g id="edge10" class="edge">
<title>node4&#45;&gt;sch3:f1</title>
<path fill="none" stroke="black" d="M191.03,-386.54C183.76,-379.47 176.8,-370.62 173.69,-360.7"/>
<polygon fill="black" stroke="black" points="177.02,-360.33 172,-351 170.11,-361.42 177.02,-360.33"/>
</g>
<!-- node4&#45;&gt;sch3 -->
<g id="edge11" class="edge">
<title>node4&#45;&gt;sch3:f2</title>
<path fill="none" stroke="black" d="M214,-386.98C214,-379.33 214,-369.97 214,-360.71"/>
<polygon fill="black" stroke="black" points="217.5,-361 214,-351 210.5,-361 217.5,-361"/>
</g>
<!-- node4&#45;&gt;sch3 -->
<g id="edge12" class="edge">
<title>node4&#45;&gt;sch3:f3</title>
<path fill="none" stroke="black" d="M237.51,-386.65C244.96,-379.6 252.09,-370.75 255.27,-360.77"/>
<polygon fill="black" stroke="black" points="258.87,-361.43 257,-351 251.96,-360.32 258.87,-361.43"/>
</g>
<!-- node5 -->
<g id="node10" class="node">
<title>node5</title>
<path fill="cyan" stroke="cyan" d="M252.75,-266.5C252.75,-266.5 175.25,-266.5 175.25,-266.5 169.25,-266.5 163.25,-260.5 163.25,-254.5 163.25,-254.5 163.25,-242.5 163.25,-242.5 163.25,-236.5 169.25,-230.5 175.25,-230.5 175.25,-230.5 252.75,-230.5 252.75,-230.5 258.75,-230.5 264.75,-236.5 264.75,-242.5 264.75,-242.5 264.75,-254.5 264.75,-254.5 264.75,-260.5 258.75,-266.5 252.75,-266.5"/>
<text text-anchor="middle" x="214" y="-244.22" font-family="Times New Roman,serif" font-size="12.00">Feature Assembler</text>
</g>
<!-- sch3&#45;&gt;node5 -->
<g id="edge13" class="edge">
<title>sch3:f0&#45;&gt;node5</title>
<path fill="none" stroke="black" d="M110,-313C110,-289.14 130.19,-273.97 152.79,-264.48"/>
<polygon fill="black" stroke="black" points="153.81,-267.45 161.91,-260.62 151.32,-260.91 153.81,-267.45"/>
</g>
<!-- sch3&#45;&gt;node5 -->
<g id="edge14" class="edge">
<title>sch3:f1&#45;&gt;node5</title>
<path fill="none" stroke="black" d="M172,-313C172,-299.02 179.16,-285.76 187.58,-275.01"/>
<polygon fill="black" stroke="black" points="190.63,-277.82 194.48,-267.95 185.31,-273.27 190.63,-277.82"/>
</g>
<!-- sch3&#45;&gt;node5 -->
<g id="edge15" class="edge">
<title>sch3:f2&#45;&gt;node5</title>
<path fill="none" stroke="black" d="M214,-313C214,-301.38 214,-288.57 214,-277.51"/>
<polygon fill="black" stroke="black" points="217.5,-277.75 214,-267.75 210.5,-277.75 217.5,-277.75"/>
</g>
<!-- sch3&#45;&gt;node5 -->
<g id="edge16" class="edge">
<title>sch3:f3&#45;&gt;node5</title>
<path fill="none" stroke="black" d="M257,-313C257,-298.92 249.66,-285.64 241.05,-274.9"/>
<polygon fill="black" stroke="black" points="243.22,-273.06 233.99,-267.86 237.96,-277.69 243.22,-273.06"/>
</g>
<!-- sch4 -->
<g id="node11" class="node">
<title>sch4</title>
<polygon fill="lightgrey" stroke="black" points="223,-157 223,-193 277,-193 277,-157 223,-157"/>
<text text-anchor="middle" x="250" y="-172.65" font-family="Times New Roman,serif" font-size="8.00">features</text>
</g>
<!-- node5&#45;&gt;sch4 -->
<g id="edge17" class="edge">
<title>node5&#45;&gt;sch4:f0</title>
<path fill="none" stroke="black" d="M222.53,-230.32C226.65,-222.02 231.7,-211.85 236.34,-202.5"/>
<polygon fill="black" stroke="black" points="239.84,-204.33 241.15,-193.82 233.57,-201.22 239.84,-204.33"/>
</g>
<!-- sch4&#45;&gt;node6 -->
<g id="edge18" class="edge">
<title>sch4:f0&#45;&gt;node6</title>
<path fill="none" stroke="black" d="M258.46,-157.21C263.61,-146.39 270.28,-132.35 276.08,-120.17"/>
<polygon fill="black" stroke="black" points="279.55,-122.01 280.69,-111.48 273.23,-119 279.55,-122.01"/>
<text text-anchor="middle" x="284.88" y="-130.9" font-family="Times New Roman,serif" font-size="8.00"> Feature</text>
</g>
<!-- sch5 -->
<g id="node13" class="node">
<title>sch5</title>
<polygon fill="lightgrey" stroke="black" points="262,-0.5 262,-36.5 316,-36.5 316,-0.5 262,-0.5"/>
<text text-anchor="middle" x="289" y="-16.15" font-family="Times New Roman,serif" font-size="8.00">Prediction</text>
</g>
<!-- node6&#45;&gt;sch5 -->
<g id="edge20" class="edge">
<title>node6&#45;&gt;sch5:f0</title>
<path fill="none" stroke="black" d="M289,-73.82C289,-65.87 289,-56.21 289,-47.2"/>
<polygon fill="black" stroke="black" points="292.5,-47.32 289,-37.32 285.5,-47.32 292.5,-47.32"/>
</g>
</g>
</svg>
